<svg xmlns="http://www.w3.org/2000/svg" width="15" height="15" viewBox="0 0 15 15">
    <path fill="#1B1B1B" fill-rule="evenodd" d="M7.517 3.37a2.298 2.298 0 0 1 2.296 2.296 2.298 2.298 0 0 1-2.296 2.296 2.298 2.298 0 0 1-2.295-2.296 2.298 2.298 0 0 1 2.295-2.295m5.279-1.179C9.873-.73 5.118-.73 2.195 2.192A7.465 7.465 0 0 0 .167 5.918a7.51 7.51 0 0 0 .278 4.119.305.305 0 0 0 .574-.207 6.9 6.9 0 0 1-.256-3.785 6.856 6.856 0 0 1 1.863-3.422 6.894 6.894 0 0 1 9.738 0A6.843 6.843 0 0 1 14.38 7.41a6.849 6.849 0 0 1-1.893 4.824l-.044.047a6.894 6.894 0 0 1-9.858.038 3.076 3.076 0 0 1 .001-.267l.004-.06a5.1 5.1 0 0 1 .007-.122l.006-.072.01-.109.01-.076.013-.103a3.81 3.81 0 0 1 .03-.177l.016-.079.02-.097.019-.078.023-.095.022-.078a5.068 5.068 0 0 1 .05-.17l.03-.092.028-.077a3.99 3.99 0 0 1 .062-.165 3.682 3.682 0 0 1 .143-.322l.043-.086a4.208 4.208 0 0 1 .083-.155l.04-.07.048-.082a6.14 6.14 0 0 1 .094-.149l.044-.066.055-.079.047-.065.058-.076.048-.063a5.616 5.616 0 0 1 .176-.21l.052-.058.067-.072.055-.056.07-.07a3.738 3.738 0 0 1 .13-.122l.056-.051.078-.067.058-.048a4.01 4.01 0 0 1 .082-.065l.057-.045.089-.065.056-.04c.032-.023.066-.045.099-.067l.049-.034c.043-.028.088-.055.132-.082l.02-.013.157-.09.055-.029.106-.055c.022-.012.046-.022.069-.033.018-.01.037-.018.055-.027a2.985 2.985 0 0 0 4.205.014 4.969 4.969 0 0 1 2.383 2.457.305.305 0 1 0 .558-.246A5.5 5.5 0 0 0 10.01 7.32c.316-.474.5-1.043.5-1.655a2.998 2.998 0 0 0-2.994-2.995 2.998 2.998 0 0 0-2.995 2.995c0 .604.18 1.166.489 1.637l-.06.03-.107.057-.075.042-.1.058-.075.046-.094.059a5.158 5.158 0 0 0-.166.11l-.074.053a5.38 5.38 0 0 0-.818.722l-.06.066-.071.081-.057.066-.07.087c-.018.022-.036.043-.052.065l-.072.096-.045.06-.089.127-.023.033a5.3 5.3 0 0 0-.105.163l-.034.057-.065.11-.039.07a5.342 5.342 0 0 0-.055.102l-.038.075-.05.099-.037.08-.044.098-.035.082-.04.099-.033.084c-.012.033-.025.066-.036.1a6.146 6.146 0 0 0-.063.187l-.027.086a5.154 5.154 0 0 0-.078.296l-.02.088a4.991 4.991 0 0 0-.023.107l-.017.088a4.903 4.903 0 0 0-.019.11l-.014.087-.015.114-.01.085-.011.12-.007.08c-.004.046-.006.09-.008.136-.001.022-.003.044-.003.067a5.567 5.567 0 0 0 .001.424.333.333 0 0 0 .023.104l.002.005c.007.015.014.03.023.043l.004.006c.009.013.019.026.03.038l.002.003.04.042a7.473 7.473 0 0 0 5.393 2.289c1.92 0 3.84-.73 5.3-2.192.032-.031.063-.064.093-.097l.04-.042a7.454 7.454 0 0 0 2.062-5.252 7.451 7.451 0 0 0-2.194-5.21"/>
</svg>
